<svg xmlns="http://www.w3.org/2000/svg" viewBox="0 0 24 24"><defs><style>.cls-1{fill:#ef4e4e;}.cls-2{fill:#fff;}</style></defs><g id="레이어_2" data-name="레이어 2"><g id="Layer_1" data-name="Layer 1"><g id="타원_156" data-name="타원 156"><circle class="cls-1" cx="12" cy="12" r="12"/></g><path class="cls-2" d="M13.41,12,16.7,8.71A1,1,0,0,0,15.29,7.3L12,10.59,8.71,7.3A1,1,0,0,0,7.3,8.71L10.59,12,7.3,15.29a1,1,0,0,0,0,1.41A1,1,0,0,0,8,17a1,1,0,0,0,.71-.29L12,13.41,15.3,16.7A1,1,0,0,0,16,17a1,1,0,0,0,.71-.29,1,1,0,0,0,0-1.41Z"/></g></g></svg>