<svg xmlns="http://www.w3.org/2000/svg" viewBox="0 0 24.01 21.05"><defs><style>.cls-1{fill:#ef764e;}.cls-2{fill:#fff;}</style></defs><g id="레이어_2" data-name="레이어 2"><g id="Layer_1" data-name="Layer 1"><g id="다각형_5" data-name="다각형 5"><path class="cls-1" d="M10.27,1a2,2,0,0,1,3.45,0L23.73,18a2,2,0,0,1-1.72,3H2a2,2,0,0,1-2-2,2,2,0,0,1,.27-1Z"/></g><g id="선_100" data-name="선 100"><path class="cls-2" d="M12,15.05a1,1,0,0,1-1-1v-7a1,1,0,0,1,2,0v7A1,1,0,0,1,12,15.05Z"/></g><g id="타원_157" data-name="타원 157"><circle class="cls-2" cx="12" cy="17.55" r="1.5"/></g></g></g></svg>