<svg xmlns="http://www.w3.org/2000/svg" viewBox="0 0 27 27"><defs><style>.cls-1{fill:#04a7fa;}.cls-2{fill:#fff;}</style></defs><g id="레이어_2" data-name="레이어 2"><g id="Layer_1" data-name="Layer 1"><g id="QW_Icon" data-name="QW Icon"><rect id="사각형_64" data-name="사각형 64" class="cls-1" width="27" height="27" rx="3"/><path class="cls-2" d="M9.57,16.43a1,1,0,0,0,.29.76,1.35,1.35,0,0,0,.91.23,2.27,2.27,0,0,0,.53-.07,2.9,2.9,0,0,0,.41-.13h.21v1.41c-.2,0-.42.09-.65.12a7.43,7.43,0,0,1-1.08.05,3.75,3.75,0,0,1-1.12-.15,2.33,2.33,0,0,1-.79-.45,1.94,1.94,0,0,1-.47-.67,2.92,2.92,0,0,1-.18-.86,3.91,3.91,0,0,1-2.79-1.2,4.22,4.22,0,0,1-1-2.94,4.16,4.16,0,0,1,1.1-3A4,4,0,0,1,8,8.36a4,4,0,0,1,3,1.12,4.16,4.16,0,0,1,1.1,3A4.55,4.55,0,0,1,11.43,15,3.4,3.4,0,0,1,9.57,16.43Zm-.22-1.88a2.42,2.42,0,0,0,.44-.86,4.06,4.06,0,0,0,.15-1.17,3.9,3.9,0,0,0-.17-1.22,2.36,2.36,0,0,0-.44-.82A1.58,1.58,0,0,0,8.7,10,2,2,0,0,0,8,9.87a1.84,1.84,0,0,0-.74.14,1.7,1.7,0,0,0-.64.46,2.39,2.39,0,0,0-.43.83A3.81,3.81,0,0,0,6,12.53a3.9,3.9,0,0,0,.16,1.21,2.35,2.35,0,0,0,.43.82A1.68,1.68,0,0,0,7.2,15a1.94,1.94,0,0,0,.76.15A2,2,0,0,0,8.72,15,1.71,1.71,0,0,0,9.35,14.55Z"/><path class="cls-2" d="M23.17,10.49l-1.87,6H19.24L18,12.46,16.8,16.52H14.73l-1.86-6h2l1,4.16,1.28-4.16h1.72l1.22,4.16,1-4.16Z"/></g></g></g></svg>